name rise36.2859peak64.2979fall75.1499.mot
datacolumns 19
datarows 44
range 0.000000 0.071668
endheader
time	ground_force1_vx	ground_force1_vy	ground_force1_vz	ground_force1_px	ground_force1_py	ground_force1_pz	ground_force2_vx	ground_force2_vy	ground_force2_vz	ground_force2_px	ground_force2_py	ground_force2_pz	ground_torque1_x	ground_torque1_y	ground_torque1_z	ground_torque2_x	ground_torque2_y	ground_torque2_z	
0.000000	-30.761578	768.997736	43.105126	0.205336	0.000000	0.089261	0.000000	0.000000	0.000000	0.000000	0.000000	0.000000	0.000000	28.716483	0.000000	0.000000	0.000000	0.000000	
0.001663	-30.693980	769.865609	43.252896	0.205184	0.000000	0.089326	0.000000	0.000000	0.000000	0.000000	0.000000	0.000000	0.000000	28.620430	0.000000	0.000000	0.000000	0.000000	
0.003346	-30.627459	770.726281	43.399442	0.205025	0.000000	0.089391	0.000000	0.000000	0.000000	0.000000	0.000000	0.000000	0.000000	28.525089	0.000000	0.000000	0.000000	0.000000	
0.005003	-30.564457	771.583589	43.545652	0.204858	0.000000	0.089457	0.000000	0.000000	0.000000	0.000000	0.000000	0.000000	0.000000	28.431457	0.000000	0.000000	0.000000	0.000000	
0.006676	-30.507360	772.442490	43.692613	0.204684	0.000000	0.089523	0.000000	0.000000	0.000000	0.000000	0.000000	0.000000	0.000000	28.340430	0.000000	0.000000	0.000000	0.000000	
0.008339	-30.458403	773.308546	43.841513	0.204501	0.000000	0.089589	0.000000	0.000000	0.000000	0.000000	0.000000	0.000000	0.000000	28.252779	0.000000	0.000000	0.000000	0.000000	
0.009998	-30.419591	774.187427	43.993551	0.204309	0.000000	0.089656	0.000000	0.000000	0.000000	0.000000	0.000000	0.000000	0.000000	28.169141	0.000000	0.000000	0.000000	0.000000	
0.011666	-30.392639	775.084484	44.149849	0.204109	0.000000	0.089723	0.000000	0.000000	0.000000	0.000000	0.000000	0.000000	0.000000	28.090019	0.000000	0.000000	0.000000	0.000000	
0.013343	-30.378939	776.004402	44.311397	0.203898	0.000000	0.089790	0.000000	0.000000	0.000000	0.000000	0.000000	0.000000	0.000000	28.015782	0.000000	0.000000	0.000000	0.000000	
0.014998	-30.379540	776.950945	44.478999	0.203677	0.000000	0.089857	0.000000	0.000000	0.000000	0.000000	0.000000	0.000000	0.000000	27.946676	0.000000	0.000000	0.000000	0.000000	
0.016666	-30.395160	777.926812	44.653254	0.203446	0.000000	0.089924	0.000000	0.000000	0.000000	0.000000	0.000000	0.000000	0.000000	27.882833	0.000000	0.000000	0.000000	0.000000	
0.018335	-30.426204	778.933570	44.834540	0.203203	0.000000	0.089991	0.000000	0.000000	0.000000	0.000000	0.000000	0.000000	0.000000	27.824291	0.000000	0.000000	0.000000	0.000000	
0.020001	-30.472799	779.971686	45.023028	0.202948	0.000000	0.090057	0.000000	0.000000	0.000000	0.000000	0.000000	0.000000	0.000000	27.771007	0.000000	0.000000	0.000000	0.000000	
0.021666	-30.534835	781.040606	45.218691	0.202682	0.000000	0.090124	0.000000	0.000000	0.000000	0.000000	0.000000	0.000000	0.000000	27.722876	0.000000	0.000000	0.000000	0.000000	
0.023343	-30.612013	782.138901	45.421338	0.202402	0.000000	0.090191	0.000000	0.000000	0.000000	0.000000	0.000000	0.000000	0.000000	27.679745	0.000000	0.000000	0.000000	0.000000	
0.025005	-30.703890	783.264422	45.630645	0.202109	0.000000	0.090257	0.000000	0.000000	0.000000	0.000000	0.000000	0.000000	0.000000	27.641425	0.000000	0.000000	0.000000	0.000000	
0.026671	-30.809921	784.414482	45.846184	0.201801	0.000000	0.090323	0.000000	0.000000	0.000000	0.000000	0.000000	0.000000	0.000000	27.607709	0.000000	0.000000	0.000000	0.000000	
0.028338	-30.929496	785.586026	46.067461	0.201480	0.000000	0.090389	0.000000	0.000000	0.000000	0.000000	0.000000	0.000000	0.000000	27.578372	0.000000	0.000000	0.000000	0.000000	
0.030002	-31.061974	786.775794	46.293945	0.201143	0.000000	0.090454	0.000000	0.000000	0.000000	0.000000	0.000000	0.000000	0.000000	27.553182	0.000000	0.000000	0.000000	0.000000	
0.031670	-31.206703	787.980451	46.525090	0.200791	0.000000	0.090519	0.000000	0.000000	0.000000	0.000000	0.000000	0.000000	0.000000	27.531904	0.000000	0.000000	0.000000	0.000000	
0.033345	-31.363038	789.196696	46.760357	0.200424	0.000000	0.090584	0.000000	0.000000	0.000000	0.000000	0.000000	0.000000	0.000000	27.514299	0.000000	0.000000	0.000000	0.000000	
0.035009	-31.530349	790.421341	46.999228	0.200039	0.000000	0.090648	0.000000	0.000000	0.000000	0.000000	0.000000	0.000000	0.000000	27.500128	0.000000	0.000000	0.000000	0.000000	
0.036668	-31.708025	791.651353	47.241211	0.199638	0.000000	0.090712	0.000000	0.000000	0.000000	0.000000	0.000000	0.000000	0.000000	27.489144	0.000000	0.000000	0.000000	0.000000	
0.038332	-31.895473	792.883879	47.485848	0.199220	0.000000	0.090775	0.000000	0.000000	0.000000	0.000000	0.000000	0.000000	0.000000	27.481096	0.000000	0.000000	0.000000	0.000000	
0.040000	-32.092112	794.116244	47.732711	0.198784	0.000000	0.090838	0.000000	0.000000	0.000000	0.000000	0.000000	0.000000	0.000000	27.475725	0.000000	0.000000	0.000000	0.000000	
0.041669	-32.297366	795.345927	47.981395	0.198330	0.000000	0.090900	0.000000	0.000000	0.000000	0.000000	0.000000	0.000000	0.000000	27.472761	0.000000	0.000000	0.000000	0.000000	
0.043330	-32.510660	796.570534	48.231517	0.197858	0.000000	0.090962	0.000000	0.000000	0.000000	0.000000	0.000000	0.000000	0.000000	27.471921	0.000000	0.000000	0.000000	0.000000	
0.044998	-32.731408	797.787758	48.482704	0.197367	0.000000	0.091024	0.000000	0.000000	0.000000	0.000000	0.000000	0.000000	0.000000	27.472907	0.000000	0.000000	0.000000	0.000000	
0.046670	-32.959008	798.995338	48.734589	0.196858	0.000000	0.091084	0.000000	0.000000	0.000000	0.000000	0.000000	0.000000	0.000000	27.475407	0.000000	0.000000	0.000000	0.000000	
0.048336	-33.192841	800.191024	48.986797	0.196329	0.000000	0.091145	0.000000	0.000000	0.000000	0.000000	0.000000	0.000000	0.000000	27.479096	0.000000	0.000000	0.000000	0.000000	
0.050003	-33.432264	801.372538	49.238947	0.195781	0.000000	0.091204	0.000000	0.000000	0.000000	0.000000	0.000000	0.000000	0.000000	27.483632	0.000000	0.000000	0.000000	0.000000	
0.051668	-33.676612	802.537554	49.490639	0.195214	0.000000	0.091264	0.000000	0.000000	0.000000	0.000000	0.000000	0.000000	0.000000	27.488664	0.000000	0.000000	0.000000	0.000000	
0.053344	-33.925200	803.683674	49.741456	0.194628	0.000000	0.091322	0.000000	0.000000	0.000000	0.000000	0.000000	0.000000	0.000000	27.493830	0.000000	0.000000	0.000000	0.000000	
0.055000	-34.177327	804.808422	49.990959	0.194022	0.000000	0.091380	0.000000	0.000000	0.000000	0.000000	0.000000	0.000000	0.000000	27.498759	0.000000	0.000000	0.000000	0.000000	
0.056663	-34.432277	805.909240	50.238690	0.193397	0.000000	0.091437	0.000000	0.000000	0.000000	0.000000	0.000000	0.000000	0.000000	27.503080	0.000000	0.000000	0.000000	0.000000	
0.058337	-34.689334	806.983491	50.484169	0.192753	0.000000	0.091494	0.000000	0.000000	0.000000	0.000000	0.000000	0.000000	0.000000	27.506416	0.000000	0.000000	0.000000	0.000000	
0.060003	-34.947779	808.028474	50.726899	0.192090	0.000000	0.091549	0.000000	0.000000	0.000000	0.000000	0.000000	0.000000	0.000000	27.508396	0.000000	0.000000	0.000000	0.000000	
0.061665	-35.206908	809.041433	50.966368	0.191408	0.000000	0.091604	0.000000	0.000000	0.000000	0.000000	0.000000	0.000000	0.000000	27.508650	0.000000	0.000000	0.000000	0.000000	
0.063334	-35.466030	810.019577	51.202050	0.190707	0.000000	0.091659	0.000000	0.000000	0.000000	0.000000	0.000000	0.000000	0.000000	27.506821	0.000000	0.000000	0.000000	0.000000	
0.065000	-35.724482	810.960100	51.433416	0.189989	0.000000	0.091712	0.000000	0.000000	0.000000	0.000000	0.000000	0.000000	0.000000	27.502557	0.000000	0.000000	0.000000	0.000000	
0.066669	-35.981632	811.860194	51.659928	0.189252	0.000000	0.091765	0.000000	0.000000	0.000000	0.000000	0.000000	0.000000	0.000000	27.495525	0.000000	0.000000	0.000000	0.000000	
0.068333	-36.236888	812.717070	51.881049	0.188499	0.000000	0.091816	0.000000	0.000000	0.000000	0.000000	0.000000	0.000000	0.000000	27.485404	0.000000	0.000000	0.000000	0.000000	
0.069998	-36.489701	813.527971	52.096246	0.187728	0.000000	0.091867	0.000000	0.000000	0.000000	0.000000	0.000000	0.000000	0.000000	27.471891	0.000000	0.000000	0.000000	0.000000	
0.071668	-36.739573	814.290186	52.304989	0.186942	0.000000	0.091916	0.000000	0.000000	0.000000	0.000000	0.000000	0.000000	0.000000	27.454703	0.000000	0.000000	0.000000	0.000000	
